# xmcd
#
# Track frame offsets:
#	150
#	25717
#	58302
#	74665
#	94557
#	107829
#	126135
#	142622
#	161997
#	177057
#	196855
#	218235
#
# Disc length: 3079 seconds
#
# Revision: 0
# Processed by: cddbd v1.5.2PL0 Copyright (c) Steve Scherf et al.
# Submitted via: EasyCDDAExtractor 16.0.8.1
#
DISCID=a80c050c
DTITLE=Ismael Rivera - El Sonero Mayor 32 Fania CD 1
DYEAR=1999
DGENRE=Salsa
TTITLE0=El Nazareno
TTITLE1=Las Caras Lindas
TTITLE2=Dime Porque
TTITLE3=Orgullosa
TTITLE4=Hola
TTITLE5=No Quiero Piedras En Mi Camino
TTITLE6=Arrecotin, Arrecotan
TTITLE7=El Mesias
TTITLE8=Entierro A La Moda
TTITLE9=La Oportunidad
TTITLE10=No Soy Para Ti
TTITLE11=Seis De Borinquen
EXTD=
EXTT0=
EXTT1=
EXTT2=
EXTT3=
EXTT4=
EXTT5=
EXTT6=
EXTT7=
EXTT8=
EXTT9=
EXTT10=
EXTT11=
PLAYORDER=
